<svg width="48" height="49" viewBox="0 0 48 49" fill="none" xmlns="http://www.w3.org/2000/svg">
<path d="M43.5 39.5564C43.5 39.9542 43.342 40.3358 43.0607 40.6171C42.7794 40.8984 42.3978 41.0564 42 41.0564H6C5.60218 41.0564 5.22064 40.8984 4.93934 40.6171C4.65804 40.3358 4.5 39.9542 4.5 39.5564V9.5564C4.5 9.15857 4.65804 8.77704 4.93934 8.49574C5.22064 8.21443 5.60218 8.0564 6 8.0564C6.39782 8.0564 6.77936 8.21443 7.06066 8.49574C7.34196 8.77704 7.5 9.15857 7.5 9.5564V29.9358L16.9387 20.4951C17.0781 20.3557 17.2435 20.245 17.4256 20.1696C17.6077 20.0941 17.8029 20.0552 18 20.0552C18.1971 20.0552 18.3923 20.0941 18.5744 20.1696C18.7565 20.245 18.9219 20.3557 19.0613 20.4951L24 25.4358L33.8794 15.5564H30C29.6022 15.5564 29.2206 15.3984 28.9393 15.1171C28.658 14.8358 28.5 14.4542 28.5 14.0564C28.5 13.6586 28.658 13.277 28.9393 12.9957C29.2206 12.7144 29.6022 12.5564 30 12.5564H37.5C37.8978 12.5564 38.2794 12.7144 38.5607 12.9957C38.842 13.277 39 13.6586 39 14.0564V21.5564C39 21.9542 38.842 22.3358 38.5607 22.6171C38.2794 22.8984 37.8978 23.0564 37.5 23.0564C37.1022 23.0564 36.7206 22.8984 36.4393 22.6171C36.158 22.3358 36 21.9542 36 21.5564V17.677L25.0613 28.6176C24.9219 28.7571 24.7565 28.8678 24.5744 28.9432C24.3923 29.0187 24.1971 29.0576 24 29.0576C23.8029 29.0576 23.6077 29.0187 23.4256 28.9432C23.2435 28.8678 23.0781 28.7571 22.9387 28.6176L18 23.677L7.5 34.177V38.0564H42C42.3978 38.0564 42.7794 38.2144 43.0607 38.4957C43.342 38.777 43.5 39.1586 43.5 39.5564Z" fill="#1D9200"/>
</svg>
