<svg width="48" height="49" viewBox="0 0 48 49" fill="none" xmlns="http://www.w3.org/2000/svg">
<path d="M18.7498 22.387C18.9779 22.2553 19.1673 22.0659 19.2989 21.8378C19.4306 21.6097 19.4998 21.351 19.4998 21.0876V7.58765C19.4984 7.3485 19.4399 7.11314 19.3292 6.90119C19.2184 6.68925 19.0585 6.50686 18.8629 6.36925C18.6673 6.23164 18.4417 6.14279 18.2048 6.11011C17.9679 6.07743 17.7266 6.10187 17.501 6.1814C13.1229 7.73092 9.44101 10.7914 7.11732 14.8125C4.79363 18.8337 3.98052 23.5519 4.82416 28.1189C4.86789 28.3551 4.96769 28.5773 5.11517 28.7668C5.26265 28.9564 5.4535 29.1078 5.67166 29.2083C5.86827 29.3002 6.08275 29.3476 6.29979 29.347C6.56306 29.3471 6.82172 29.2779 7.04979 29.1464L18.7498 22.387ZM16.4998 9.86015V20.2214L7.52229 25.402C7.49979 25.1189 7.49979 24.8339 7.49979 24.5564C7.50245 21.5158 8.34408 18.5349 9.93202 15.942C11.52 13.349 13.7926 11.2445 16.4998 9.86015ZM23.9998 5.0564C23.602 5.0564 23.2204 5.21443 22.9391 5.49574C22.6578 5.77704 22.4998 6.15857 22.4998 6.5564V23.7726L7.72291 32.3808C7.55144 32.4802 7.40136 32.6126 7.28136 32.7703C7.16136 32.9281 7.07381 33.108 7.02377 33.2998C6.97373 33.4916 6.9622 33.6914 6.98984 33.8877C7.01747 34.0839 7.08373 34.2728 7.18479 34.4433C8.91673 37.3876 11.3917 39.8253 14.362 41.5123C17.3323 43.1994 20.6936 44.0765 24.1095 44.056C27.5254 44.0355 30.876 43.1181 33.8258 41.3955C36.7756 39.673 39.2212 37.2058 40.9177 34.2409C42.6142 31.276 43.502 27.9175 43.4924 24.5015C43.4828 21.0856 42.5761 17.7321 40.8629 14.7768C39.1498 11.8215 36.6903 9.36812 33.7309 7.66218C30.7714 5.95625 27.4157 5.05767 23.9998 5.0564ZM23.9998 41.0564C21.3812 41.0494 18.8016 40.4226 16.4718 39.2272C14.142 38.0318 12.1283 36.3019 10.5954 34.1789L24.7554 25.9289C24.9832 25.7974 25.1724 25.6083 25.3041 25.3805C25.4357 25.1528 25.5051 24.8944 25.5054 24.6314V8.1239C29.7362 8.50775 33.6559 10.5086 36.4485 13.7099C39.2411 16.9112 40.6913 21.0662 40.4973 25.31C40.3033 29.5537 38.48 33.5591 35.4069 36.4922C32.3339 39.4253 28.2479 41.0602 23.9998 41.0564Z" fill="#1D9200"/>
</svg>
