<svg width="48" height="49" viewBox="0 0 48 49" fill="none" xmlns="http://www.w3.org/2000/svg">
<path d="M42 9.5564H6C5.60218 9.5564 5.22064 9.71443 4.93934 9.99574C4.65804 10.277 4.5 10.6586 4.5 11.0564V36.5564C4.5 37.352 4.81607 38.1151 5.37868 38.6777C5.94129 39.2403 6.70435 39.5564 7.5 39.5564H40.5C41.2957 39.5564 42.0587 39.2403 42.6213 38.6777C43.1839 38.1151 43.5 37.352 43.5 36.5564V11.0564C43.5 10.6586 43.342 10.277 43.0607 9.99574C42.7794 9.71443 42.3978 9.5564 42 9.5564ZM24 25.522L9.85687 12.5564H38.1431L24 25.522ZM18.5081 24.5564L7.5 34.6458V14.467L18.5081 24.5564ZM20.7281 26.5908L22.9781 28.6626C23.2549 28.9167 23.6168 29.0576 23.9925 29.0576C24.3682 29.0576 24.7301 28.9167 25.0069 28.6626L27.2569 26.5908L38.1319 36.5564H9.85687L20.7281 26.5908ZM29.4919 24.5564L40.5 14.4651V34.6476L29.4919 24.5564Z" fill="#1D9200"/>
</svg>
