<svg width="160" height="161" viewBox="0 0 160 161" fill="none" xmlns="http://www.w3.org/2000/svg">
<path d="M154.569 78.5314C154.35 78.0376 149.056 66.2939 137.287 54.5251C121.606 38.8439 101.8 30.5564 79.9999 30.5564C58.1999 30.5564 38.3937 38.8439 22.7124 54.5251C10.9437 66.2939 5.62494 78.0564 5.43119 78.5314C5.1469 79.1708 5 79.8628 5 80.5626C5 81.2624 5.1469 81.9544 5.43119 82.5939C5.64994 83.0876 10.9437 94.8251 22.7124 106.594C38.3937 122.269 58.1999 130.556 79.9999 130.556C101.8 130.556 121.606 122.269 137.287 106.594C149.056 94.8251 154.35 83.0876 154.569 82.5939C154.853 81.9544 155 81.2624 155 80.5626C155 79.8628 154.853 79.1708 154.569 78.5314ZM79.9999 120.556C60.7624 120.556 43.9562 113.563 30.0437 99.7751C24.3352 94.0982 19.4786 87.6249 15.6249 80.5564C19.4776 73.4873 24.3343 67.0137 30.0437 61.3376C43.9562 47.5501 60.7624 40.5564 79.9999 40.5564C99.2374 40.5564 116.044 47.5501 129.956 61.3376C135.676 67.0124 140.543 73.4859 144.406 80.5564C139.9 88.9689 120.269 120.556 79.9999 120.556ZM79.9999 50.5564C74.0665 50.5564 68.2663 52.3159 63.3328 55.6123C58.3994 58.9088 54.5542 63.5941 52.2836 69.0759C50.0129 74.5577 49.4188 80.5897 50.5764 86.4091C51.7339 92.2285 54.5912 97.574 58.7867 101.77C62.9823 105.965 68.3278 108.822 74.1472 109.98C79.9667 111.138 85.9987 110.543 91.4805 108.273C96.9622 106.002 101.648 102.157 104.944 97.2235C108.24 92.29 110 86.4898 110 80.5564C109.992 72.6024 106.828 64.9766 101.204 59.3523C95.5797 53.728 87.9539 50.5647 79.9999 50.5564ZM79.9999 100.556C76.0443 100.556 72.1775 99.3834 68.8885 97.1858C65.5996 94.9882 63.0361 91.8646 61.5224 88.2101C60.0086 84.5555 59.6125 80.5342 60.3842 76.6546C61.1559 72.775 63.0608 69.2113 65.8578 66.4143C68.6549 63.6172 72.2185 61.7124 76.0981 60.9407C79.9778 60.169 83.9991 60.5651 87.6536 62.0788C91.3081 63.5926 94.4317 66.156 96.6293 69.445C98.827 72.734 100 76.6008 100 80.5564C100 85.8607 97.8928 90.9478 94.1421 94.6985C90.3914 98.4493 85.3043 100.556 79.9999 100.556Z" fill="#1D9200"/>
</svg>
