<svg width="160" height="161" viewBox="0 0 160 161" fill="none" xmlns="http://www.w3.org/2000/svg">
<g clip-path="url(#clip0_65_545)">
<path d="M143.956 88.7189C142.096 87.2874 139.93 86.3042 137.628 85.8456C135.325 85.3871 132.948 85.4657 130.681 86.0752L104.531 92.0877C105.14 89.5176 105.158 86.8432 104.586 84.2648C104.014 81.6865 102.866 79.2711 101.227 77.1997C99.5887 75.1283 97.5026 73.4547 95.1253 72.3041C92.748 71.1536 90.1411 70.5561 87.5 70.5564H56.2125C53.585 70.5498 50.9822 71.064 48.5546 72.0691C46.1269 73.0743 43.9225 74.5506 42.0687 76.4127L27.9312 90.5564H10C7.34784 90.5564 4.8043 91.61 2.92893 93.4853C1.05357 95.3607 0 97.9042 0 100.556L0 125.556C0 128.209 1.05357 130.752 2.92893 132.627C4.8043 134.503 7.34784 135.556 10 135.556H75C75.4088 135.557 75.8161 135.506 76.2125 135.406L116.213 125.406C116.467 125.346 116.716 125.262 116.956 125.156L141.25 114.819L141.525 114.694C143.86 113.527 145.859 111.785 147.335 109.632C148.81 107.479 149.713 104.986 149.959 102.388C150.205 99.7893 149.785 97.1711 148.739 94.7797C147.693 92.3883 146.056 90.3026 143.981 88.7189H143.956ZM10 100.556H25V125.556H10V100.556ZM137.144 105.688L113.394 115.8L74.375 125.556H35V97.6252L49.1437 83.4877C50.069 82.555 51.1703 81.8156 52.3839 81.3124C53.5974 80.8092 54.8988 80.5522 56.2125 80.5564H87.5C89.4891 80.5564 91.3968 81.3466 92.8033 82.7531C94.2098 84.1596 95 86.0673 95 88.0564C95 90.0455 94.2098 91.9532 92.8033 93.3597C91.3968 94.7662 89.4891 95.5564 87.5 95.5564H70C68.6739 95.5564 67.4021 96.0832 66.4645 97.0209C65.5268 97.9585 65 99.2303 65 100.556C65 101.882 65.5268 103.154 66.4645 104.092C67.4021 105.03 68.6739 105.556 70 105.556H90C90.3763 105.555 90.7514 105.513 91.1187 105.431L132.994 95.8002L133.188 95.7502C134.466 95.3953 135.83 95.5257 137.018 96.1163C138.206 96.7069 139.134 97.716 139.622 98.9493C140.111 100.183 140.126 101.553 139.665 102.797C139.204 104.041 138.299 105.071 137.125 105.688H137.144ZM102.5 60.5564C103.735 60.5578 104.969 60.4575 106.188 60.2564C107.558 64.3286 110.067 67.923 113.416 70.6148C116.765 73.3066 120.815 74.9832 125.086 75.4463C129.358 75.9094 133.673 75.1397 137.521 73.2282C141.369 71.3167 144.59 68.3433 146.801 64.6595C149.013 60.9758 150.124 56.7358 150.002 52.4408C149.881 48.1458 148.532 43.9754 146.115 40.4226C143.699 36.8699 140.315 34.0834 136.365 32.3926C132.415 30.7018 128.064 30.1774 123.825 30.8814C122.505 26.9579 120.128 23.4747 116.956 20.815C113.784 18.1553 109.94 16.4223 105.846 15.8066C101.752 15.191 97.5684 15.7166 93.7543 17.3256C89.9402 18.9345 86.6439 21.5646 84.2282 24.9262C81.8125 28.2878 80.371 32.2507 80.0623 36.3787C79.7537 40.5068 80.5898 44.64 82.4788 48.3235C84.3677 52.007 87.2362 55.0979 90.7686 57.2562C94.3011 59.4145 98.3604 60.5565 102.5 60.5564ZM140 53.0564C140 55.5287 139.267 57.9454 137.893 60.001C136.52 62.0566 134.568 63.6588 132.284 64.6049C129.999 65.551 127.486 65.7985 125.061 65.3162C122.637 64.8339 120.409 63.6434 118.661 61.8952C116.913 60.1471 115.722 57.9198 115.24 55.495C114.758 53.0703 115.005 50.5569 115.952 48.2729C116.898 45.9888 118.5 44.0366 120.555 42.663C122.611 41.2895 125.028 40.5564 127.5 40.5564C130.815 40.5564 133.995 41.8734 136.339 44.2176C138.683 46.5618 140 49.7412 140 53.0564ZM102.5 25.5564C105.227 25.5578 107.879 26.4508 110.051 28.0994C112.223 29.748 113.796 32.0616 114.531 34.6877C111.97 36.4895 109.814 38.806 108.2 41.489C106.585 44.172 105.549 47.1624 105.156 50.2689C104.283 50.4574 103.393 50.5538 102.5 50.5564C99.1848 50.5564 96.0054 49.2394 93.6612 46.8952C91.317 44.551 90 41.3716 90 38.0564C90 34.7412 91.317 31.5618 93.6612 29.2176C96.0054 26.8734 99.1848 25.5564 102.5 25.5564Z" fill="#1D9200"/>
</g>
<defs>
<clipPath id="clip0_65_545">
<rect width="160" height="160" fill="white" transform="translate(0 0.556396)"/>
</clipPath>
</defs>
</svg>
