<svg width="48" height="49" viewBox="0 0 48 49" fill="none" xmlns="http://www.w3.org/2000/svg">
<g clip-path="url(#clip0_44_1151)">
<path d="M43.1869 27.0051C42.6287 26.5757 41.979 26.2807 41.2883 26.1432C40.5976 26.0056 39.8845 26.0292 39.2044 26.212L31.3594 28.0158C31.5419 27.2448 31.5475 26.4424 31.3759 25.6689C31.2042 24.8954 30.8597 24.1708 30.3681 23.5494C29.8766 22.928 29.2508 22.4259 28.5376 22.0807C27.8244 21.7356 27.0423 21.5563 26.25 21.5564H16.8638C16.0755 21.5544 15.2947 21.7087 14.5664 22.0102C13.8381 22.3118 13.1768 22.7547 12.6206 23.3133L8.37938 27.5564H3C2.20435 27.5564 1.44129 27.8725 0.87868 28.4351C0.316071 28.9977 0 29.7607 0 30.5564L0 38.0564C0 38.852 0.316071 39.6151 0.87868 40.1777C1.44129 40.7403 2.20435 41.0564 3 41.0564H22.5C22.6226 41.0565 22.7448 41.0413 22.8638 41.0114L34.8638 38.0114C34.9402 37.9932 35.0149 37.9681 35.0869 37.9364L42.375 34.8352L42.4575 34.7976C43.1579 34.4476 43.7578 33.9251 44.2004 33.2792C44.6431 32.6333 44.914 31.8854 44.9878 31.1058C45.0615 30.3263 44.9355 29.5408 44.6218 28.8234C44.308 28.106 43.8168 27.4802 43.1944 27.0051H43.1869ZM3 30.5564H7.5V38.0564H3V30.5564ZM41.1431 32.0958L34.0181 35.1295L22.3125 38.0564H10.5V29.677L14.7431 25.4358C15.0207 25.156 15.3511 24.9342 15.7152 24.7832C16.0792 24.6322 16.4696 24.5551 16.8638 24.5564H26.25C26.8467 24.5564 27.419 24.7935 27.841 25.2154C28.2629 25.6374 28.5 26.2097 28.5 26.8064C28.5 27.4031 28.2629 27.9754 27.841 28.3974C27.419 28.8193 26.8467 29.0564 26.25 29.0564H21C20.6022 29.0564 20.2206 29.2144 19.9393 29.4957C19.658 29.777 19.5 30.1586 19.5 30.5564C19.5 30.9542 19.658 31.3358 19.9393 31.6171C20.2206 31.8984 20.6022 32.0564 21 32.0564H27C27.1129 32.0561 27.2254 32.0435 27.3356 32.0189L39.8981 29.1295L39.9563 29.1145C40.3397 29.0081 40.7491 29.0472 41.1054 29.2244C41.4618 29.4015 41.7401 29.7043 41.8867 30.0743C42.0333 30.4443 42.0379 30.8554 41.8996 31.2286C41.7613 31.6018 41.4898 31.9107 41.1375 32.0958H41.1431ZM30.75 18.5564C31.1206 18.5568 31.4906 18.5267 31.8563 18.4664C32.2675 19.688 33.02 20.7664 34.0247 21.5739C35.0295 22.3815 36.2444 22.8844 37.5259 23.0234C38.8074 23.1623 40.1019 22.9314 41.2564 22.3579C42.4108 21.7845 43.3769 20.8925 44.0404 19.7873C44.704 18.6822 45.0372 17.4102 45.0007 16.1217C44.9643 14.8332 44.5596 13.5821 43.8346 12.5163C43.1096 11.4504 42.0946 10.6145 40.9096 10.1073C39.7246 9.60002 38.4191 9.4427 37.1475 9.6539C36.7515 8.47686 36.0384 7.43189 35.0868 6.63398C34.1352 5.83607 32.9819 5.31616 31.7538 5.13147C30.5257 4.94677 29.2705 5.10445 28.1263 5.58714C26.9821 6.06984 25.9932 6.85885 25.2685 7.86733C24.5437 8.87582 24.1113 10.0647 24.0187 11.3031C23.9261 12.5415 24.1769 13.7815 24.7436 14.8865C25.3103 15.9916 26.1709 16.9189 27.2306 17.5663C28.2903 18.2138 29.5081 18.5564 30.75 18.5564ZM42 16.3064C42 17.0481 41.7801 17.7731 41.368 18.3898C40.956 19.0065 40.3703 19.4871 39.6851 19.7709C38.9998 20.0548 38.2458 20.129 37.5184 19.9843C36.791 19.8397 36.1228 19.4825 35.5984 18.958C35.0739 18.4336 34.7168 17.7654 34.5721 17.038C34.4274 16.3106 34.5016 15.5566 34.7855 14.8713C35.0693 14.1861 35.5499 13.6004 36.1666 13.1884C36.7833 12.7763 37.5083 12.5564 38.25 12.5564C39.2446 12.5564 40.1984 12.9515 40.9017 13.6547C41.6049 14.358 42 15.3118 42 16.3064ZM30.75 8.0564C31.5681 8.05681 32.3636 8.32472 33.0152 8.8193C33.6669 9.31387 34.1389 10.008 34.3594 10.7958C33.5911 11.3363 32.9442 12.0313 32.4599 12.8362C31.9756 13.6411 31.6646 14.5382 31.5469 15.4701C31.285 15.5267 31.0179 15.5556 30.75 15.5564C29.7554 15.5564 28.8016 15.1613 28.0984 14.458C27.3951 13.7548 27 12.801 27 11.8064C27 10.8118 27.3951 9.85801 28.0984 9.15475C28.8016 8.45149 29.7554 8.0564 30.75 8.0564Z" fill="#FDF9FF"/>
</g>
<defs>
<clipPath id="clip0_44_1151">
<rect width="48" height="48" fill="white" transform="translate(0 0.556396)"/>
</clipPath>
</defs>
</svg>
