<svg width="48" height="49" viewBox="0 0 48 49" fill="none" xmlns="http://www.w3.org/2000/svg">
<path d="M32.9998 44.0564C32.9998 44.4543 32.8417 44.8358 32.5604 45.1171C32.2791 45.3984 31.8976 45.5564 31.4998 45.5564H16.4998C16.1019 45.5564 15.7204 45.3984 15.4391 45.1171C15.1578 44.8358 14.9998 44.4543 14.9998 44.0564C14.9998 43.6586 15.1578 43.2771 15.4391 42.9958C15.7204 42.7145 16.1019 42.5564 16.4998 42.5564H31.4998C31.8976 42.5564 32.2791 42.7145 32.5604 42.9958C32.8417 43.2771 32.9998 43.6586 32.9998 44.0564ZM40.4998 20.0564C40.5062 22.557 39.9413 25.026 38.8482 27.275C37.755 29.524 36.1626 31.4935 34.1923 33.0333C33.8238 33.3157 33.5249 33.6786 33.3182 34.0942C33.1115 34.5099 33.0026 34.9672 32.9998 35.4314V36.5564C32.9998 37.3521 32.6837 38.1151 32.1211 38.6777C31.5585 39.2404 30.7954 39.5564 29.9998 39.5564H17.9998C17.2041 39.5564 16.441 39.2404 15.8784 38.6777C15.3158 38.1151 14.9998 37.3521 14.9998 36.5564V35.4314C14.9994 34.9728 14.894 34.5203 14.6915 34.1088C14.489 33.6973 14.1948 33.3377 13.8316 33.0577C11.8663 31.527 10.2748 29.5693 9.17784 27.3328C8.08084 25.0962 7.507 22.6394 7.49976 20.1483C7.45101 11.2121 14.6735 3.77017 23.6023 3.55642C25.8023 3.50341 27.9907 3.89102 30.0387 4.69646C32.0867 5.50189 33.9528 6.70887 35.5273 8.24635C37.1019 9.78382 38.3529 11.6207 39.2069 13.649C40.0608 15.6772 40.5004 17.8558 40.4998 20.0564ZM37.4998 20.0564C37.5003 18.2558 37.1406 16.4732 36.4418 14.8137C35.7431 13.1542 34.7194 11.6512 33.4311 10.3933C32.1427 9.13531 30.6157 8.1478 28.94 7.48888C27.2642 6.82995 25.4736 6.51291 23.6735 6.55643C16.361 6.72892 10.4604 12.8171 10.4998 20.1296C10.5066 22.1669 10.9767 24.176 11.8746 26.0049C12.7725 27.8337 14.0745 29.4344 15.6823 30.6858C16.405 31.2476 16.9895 31.9674 17.3912 32.7899C17.7929 33.6125 18.0011 34.516 17.9998 35.4314V36.5564H29.9998V35.4314C30.0018 34.5134 30.2136 33.608 30.6188 32.7843C31.024 31.9606 31.612 31.2402 32.3379 30.6783C33.9506 29.418 35.254 27.8059 36.1486 25.965C37.0432 24.1241 37.5053 22.1032 37.4998 20.0564ZM34.4791 18.3052C34.0902 16.1326 33.0449 14.1314 31.4841 12.5709C29.9233 11.0104 27.9218 9.96554 25.7491 9.57705C25.5549 9.5443 25.356 9.55014 25.164 9.59423C24.972 9.63832 24.7905 9.7198 24.63 9.83401C24.4695 9.94823 24.333 10.0929 24.2284 10.2599C24.1238 10.4269 24.0531 10.6128 24.0204 10.8071C23.9876 11.0013 23.9935 11.2001 24.0376 11.3922C24.0816 11.5842 24.1631 11.7656 24.2773 11.9262C24.3916 12.0867 24.5363 12.2232 24.7032 12.3278C24.8702 12.4324 25.0561 12.5031 25.2504 12.5358C28.3573 13.0589 30.9935 15.6952 31.5204 18.8077C31.5797 19.157 31.7609 19.4741 32.0316 19.7027C32.3024 19.9312 32.6454 20.0566 32.9998 20.0564C33.0845 20.0559 33.1691 20.049 33.2529 20.0358C33.645 19.9689 33.9944 19.7489 34.2244 19.4244C34.4543 19.0999 34.546 18.6973 34.4791 18.3052Z" fill="#FDF9FF"/>
</svg>
