<svg width="48" height="49" viewBox="0 0 48 49" fill="none" xmlns="http://www.w3.org/2000/svg">
<path d="M24 21.5564C22.7392 21.5568 21.5207 22.0109 20.5672 22.8357C19.6137 23.6605 18.9888 24.8009 18.8068 26.0484C18.6248 27.296 18.8977 28.5673 19.5759 29.6302C20.254 30.693 21.2919 31.4764 22.5 31.837V35.0564C22.5 35.4542 22.658 35.8358 22.9393 36.1171C23.2206 36.3984 23.6022 36.5564 24 36.5564C24.3978 36.5564 24.7794 36.3984 25.0607 36.1171C25.342 35.8358 25.5 35.4542 25.5 35.0564V31.837C26.7081 31.4764 27.746 30.693 28.4241 29.6302C29.1023 28.5673 29.3752 27.296 29.1932 26.0484C29.0112 24.8009 28.3863 23.6605 27.4328 22.8357C26.4792 22.0109 25.2608 21.5568 24 21.5564ZM24 29.0564C23.555 29.0564 23.12 28.9244 22.75 28.6772C22.38 28.43 22.0916 28.0786 21.9213 27.6674C21.751 27.2563 21.7064 26.8039 21.7932 26.3674C21.88 25.931 22.0943 25.5301 22.409 25.2154C22.7237 24.9007 23.1246 24.6864 23.561 24.5996C23.9975 24.5128 24.4499 24.5574 24.861 24.7277C25.2722 24.898 25.6236 25.1864 25.8708 25.5564C26.118 25.9264 26.25 26.3614 26.25 26.8064C26.25 27.4031 26.0129 27.9754 25.591 28.3974C25.169 28.8193 24.5967 29.0564 24 29.0564ZM39 15.5564H33V11.0564C33 8.66945 32.0518 6.38026 30.364 4.69244C28.6761 3.00461 26.3869 2.0564 24 2.0564C21.6131 2.0564 19.3239 3.00461 17.636 4.69244C15.9482 6.38026 15 8.66945 15 11.0564V15.5564H9C8.20435 15.5564 7.44129 15.8725 6.87868 16.4351C6.31607 16.9977 6 17.7607 6 18.5564V39.5564C6 40.352 6.31607 41.1151 6.87868 41.6777C7.44129 42.2403 8.20435 42.5564 9 42.5564H39C39.7957 42.5564 40.5587 42.2403 41.1213 41.6777C41.6839 41.1151 42 40.352 42 39.5564V18.5564C42 17.7607 41.6839 16.9977 41.1213 16.4351C40.5587 15.8725 39.7957 15.5564 39 15.5564ZM18 11.0564C18 9.4651 18.6321 7.93897 19.7574 6.81376C20.8826 5.68854 22.4087 5.0564 24 5.0564C25.5913 5.0564 27.1174 5.68854 28.2426 6.81376C29.3679 7.93897 30 9.4651 30 11.0564V15.5564H18V11.0564ZM39 39.5564H9V18.5564H39V39.5564Z" fill="#1D9200"/>
</svg>
