<svg width="48" height="49" viewBox="0 0 48 49" fill="none" xmlns="http://www.w3.org/2000/svg">
<path d="M24 12.5564C22.5166 12.5564 21.0666 12.9963 19.8332 13.8204C18.5999 14.6445 17.6386 15.8158 17.0709 17.1863C16.5032 18.5567 16.3547 20.0647 16.6441 21.5196C16.9335 22.9744 17.6478 24.3108 18.6967 25.3597C19.7456 26.4086 21.082 27.1229 22.5368 27.4123C23.9917 27.7017 25.4997 27.5532 26.8701 26.9855C28.2406 26.4178 29.4119 25.4565 30.236 24.2232C31.0601 22.9898 31.5 21.5398 31.5 20.0564C31.5 18.0673 30.7098 16.1596 29.3033 14.7531C27.8968 13.3466 25.9891 12.5564 24 12.5564ZM24 24.5564C23.11 24.5564 22.24 24.2925 21.4999 23.798C20.7599 23.3035 20.1831 22.6007 19.8425 21.7785C19.5019 20.9562 19.4128 20.0514 19.5865 19.1785C19.7601 18.3056 20.1887 17.5038 20.818 16.8744C21.4474 16.2451 22.2492 15.8165 23.1221 15.6429C23.995 15.4692 24.8998 15.5583 25.7221 15.8989C26.5443 16.2395 27.2471 16.8163 27.7416 17.5563C28.2361 18.2964 28.5 19.1664 28.5 20.0564C28.5 21.2499 28.0259 22.3945 27.182 23.2384C26.3381 24.0823 25.1935 24.5564 24 24.5564ZM24 3.5564C19.6255 3.56136 15.4315 5.30134 12.3382 8.39462C9.24494 11.4879 7.50496 15.6818 7.5 20.0564C7.5 25.9439 10.2206 32.1839 15.375 38.1033C17.691 40.7781 20.2977 43.1867 23.1469 45.2845C23.3991 45.4612 23.6996 45.556 24.0075 45.556C24.3154 45.556 24.6159 45.4612 24.8681 45.2845C27.712 43.1858 30.3137 40.7772 32.625 38.1033C37.7719 32.1839 40.5 25.9439 40.5 20.0564C40.495 15.6818 38.7551 11.4879 35.6618 8.39462C32.5685 5.30134 28.3745 3.56136 24 3.5564ZM24 42.1814C20.9006 39.7439 10.5 30.7908 10.5 20.0564C10.5 16.476 11.9223 13.0422 14.4541 10.5105C16.9858 7.97871 20.4196 6.5564 24 6.5564C27.5804 6.5564 31.0142 7.97871 33.5459 10.5105C36.0777 13.0422 37.5 16.476 37.5 20.0564C37.5 30.787 27.0994 39.7439 24 42.1814Z" fill="#1D9200"/>
</svg>
