<svg width="48" height="49" viewBox="0 0 48 49" fill="none" xmlns="http://www.w3.org/2000/svg">
<path d="M45 23.0565H42V9.55645C41.9999 9.11711 41.9034 8.68314 41.7171 8.28521C41.5309 7.88729 41.2595 7.53513 40.9222 7.25362C40.5849 6.97211 40.1899 6.76813 39.7651 6.65608C39.3403 6.54404 38.896 6.52667 38.4637 6.6052L8.46375 12.0596C7.7725 12.1852 7.14726 12.5494 6.69702 13.0887C6.24678 13.628 6.0001 14.3083 6 15.0108V23.0565H3C2.60218 23.0565 2.22064 23.2145 1.93934 23.4958C1.65804 23.7771 1.5 24.1586 1.5 24.5565C1.5 24.9543 1.65804 25.3358 1.93934 25.6171C2.22064 25.8984 2.60218 26.0565 3 26.0565H6V34.1021C6.0001 34.8046 6.24678 35.4849 6.69702 36.0242C7.14726 36.5635 7.7725 36.9277 8.46375 37.0533L38.4637 42.5077C38.6407 42.5395 38.8202 42.5558 39 42.5565C39.7957 42.5565 40.5587 42.2404 41.1213 41.6778C41.6839 41.1152 42 40.3521 42 39.5565V26.0565H45C45.3978 26.0565 45.7794 25.8984 46.0607 25.6171C46.342 25.3358 46.5 24.9543 46.5 24.5565C46.5 24.1586 46.342 23.7771 46.0607 23.4958C45.7794 23.2145 45.3978 23.0565 45 23.0565ZM9 15.0108L39 9.55645V23.0565H9V15.0108ZM39 39.5565L9 34.1021V26.0565H39V39.5565Z" fill="#FDF9FF"/>
</svg>
