<svg width="48" height="49" viewBox="0 0 48 49" fill="none" xmlns="http://www.w3.org/2000/svg">
<path d="M27.0506 9.16826C27.1016 8.97789 27.1895 8.79943 27.3094 8.64305C27.4293 8.48668 27.5789 8.35547 27.7495 8.25692C27.9201 8.15836 28.1085 8.0944 28.3039 8.06867C28.4993 8.04295 28.6978 8.05598 28.8881 8.10701C31.6689 8.83254 34.206 10.2862 36.2381 12.3183C38.2702 14.3504 39.7239 16.8875 40.4494 19.6683C40.5004 19.8586 40.5134 20.0571 40.4877 20.2525C40.462 20.4479 40.398 20.6363 40.2995 20.8069C40.2009 20.9775 40.0697 21.1271 39.9133 21.247C39.757 21.3669 39.5785 21.4548 39.3881 21.5058C39.2614 21.539 39.131 21.5561 39 21.5564C38.6695 21.5564 38.3482 21.4472 38.0861 21.2458C37.824 21.0444 37.6358 20.762 37.5506 20.4426C36.9589 18.1726 35.7725 16.1015 34.1137 14.4427C32.4549 12.7839 30.3838 11.5975 28.1138 11.0058C27.9232 10.955 27.7446 10.8673 27.588 10.7474C27.4314 10.6276 27.3 10.4781 27.2013 10.3074C27.1025 10.1368 27.0384 9.9483 27.0125 9.75283C26.9867 9.55736 26.9996 9.35872 27.0506 9.16826ZM26.6138 17.0058C29.1994 17.6958 30.8606 19.357 31.5506 21.9426C31.6358 22.262 31.824 22.5444 32.0861 22.7458C32.3482 22.9472 32.6695 23.0564 33 23.0564C33.131 23.0561 33.2614 23.039 33.3881 23.0058C33.5785 22.9548 33.757 22.8669 33.9133 22.747C34.0697 22.6271 34.2009 22.4775 34.2995 22.3069C34.398 22.1363 34.462 21.9479 34.4877 21.7525C34.5134 21.5571 34.5004 21.3586 34.4494 21.1683C33.4894 17.5758 30.9806 15.067 27.3881 14.107C27.0037 14.0043 26.5943 14.0585 26.2499 14.2577C25.9055 14.4569 25.6543 14.7848 25.5516 15.1692C25.4489 15.5536 25.5031 15.963 25.7023 16.3075C25.9015 16.6519 26.2294 16.9031 26.6138 17.0058ZM41.9775 34.8839C41.6432 37.4246 40.3955 39.7567 38.4673 41.4446C36.5392 43.1326 34.0626 44.061 31.5 44.0564C16.6125 44.0564 4.50002 31.9439 4.50002 17.0564C4.49542 14.4938 5.42381 12.0172 7.11177 10.0891C8.79973 8.16095 11.1318 6.91321 13.6725 6.57888C14.315 6.50043 14.9656 6.63187 15.5272 6.95358C16.0889 7.27529 16.5314 7.77 16.7888 8.36388L20.7488 17.2045V17.227C20.9458 17.6816 21.0272 18.1779 20.9856 18.6717C20.9441 19.1654 20.7809 19.6411 20.5106 20.0564C20.4769 20.107 20.4413 20.1539 20.4038 20.2008L16.5 24.8283C17.9044 27.682 20.8894 30.6408 23.7806 32.0489L28.3444 28.1658C28.3892 28.1281 28.4362 28.093 28.485 28.0608C28.8999 27.784 29.3773 27.6151 29.874 27.5693C30.3706 27.5234 30.8708 27.6021 31.3294 27.7983L31.3538 27.8095L40.1869 31.7676C40.7818 32.0241 41.2777 32.4662 41.6005 33.0279C41.9233 33.5896 42.0555 34.2408 41.9775 34.8839ZM39 34.5089C39 34.5089 38.9869 34.5089 38.9794 34.5089L30.1669 30.562L25.6013 34.4451C25.557 34.4827 25.5107 34.5177 25.4625 34.5501C25.0308 34.8381 24.5318 35.0092 24.0142 35.0467C23.4966 35.0842 22.9781 34.9867 22.5094 34.7639C18.9975 33.067 15.4969 29.5926 13.7981 26.1183C13.5732 25.653 13.4723 25.1375 13.5051 24.6217C13.538 24.106 13.7035 23.6075 13.9856 23.1745C14.0174 23.1237 14.0532 23.0754 14.0925 23.0301L18 18.397L14.0625 9.58451C14.0618 9.57703 14.0618 9.56949 14.0625 9.56201C12.2442 9.79919 10.5748 10.6911 9.36679 12.0706C8.15879 13.4501 7.4951 15.2227 7.50002 17.0564C7.50696 23.4194 10.0378 29.5199 14.5371 34.0193C19.0365 38.5186 25.137 41.0494 31.5 41.0564C33.3326 41.0627 35.1047 40.4013 36.485 39.1959C37.8653 37.9906 38.7594 36.3237 39 34.507V34.5089Z" fill="#1D9200"/>
</svg>
