<svg width="160" height="161" viewBox="0 0 160 161" fill="none" xmlns="http://www.w3.org/2000/svg">
<path d="M139.906 30.0063C139.758 27.5684 138.723 25.2689 136.996 23.5419C135.269 21.8148 132.969 20.7795 130.531 20.6313C122.669 20.1626 102.575 20.8813 85.9002 37.5501L82.9314 40.5563H46.4752C45.1569 40.5489 43.8503 40.8037 42.6315 41.3058C41.4126 41.808 40.3057 42.5475 39.3752 43.4813L17.9377 64.9313C16.623 66.2451 15.7005 67.8993 15.2736 69.7083C14.8468 71.5173 14.9325 73.4094 15.5213 75.1723C16.11 76.9353 17.1784 78.4992 18.6065 79.6887C20.0347 80.8782 21.7661 81.6461 23.6064 81.9063L47.6502 85.2626L75.2814 112.894L78.6377 136.95C78.8958 138.791 79.6635 140.522 80.8541 141.949C82.0447 143.376 83.6108 144.441 85.3752 145.025C86.4029 145.368 87.4792 145.544 88.5627 145.544C89.8746 145.546 91.1741 145.289 92.3862 144.787C93.5984 144.285 94.6992 143.548 95.6252 142.619L117.075 121.181C118.009 120.251 118.749 119.144 119.251 117.925C119.753 116.706 120.008 115.4 120 114.081V77.6251L122.981 74.6438C139.656 57.9688 140.375 37.8751 139.906 30.0063ZM46.4752 50.5563H72.9314L48.2252 75.2563L25.0002 72.0188L46.4752 50.5563ZM92.9814 44.6501C97.786 39.8159 103.567 36.0626 109.938 33.6408C116.308 31.219 123.123 30.1845 129.925 30.6063C130.363 37.4125 129.34 44.2335 126.923 50.6111C124.506 56.9887 120.752 62.7751 115.913 67.5813L80.0002 103.481L57.0752 80.5563L92.9814 44.6501ZM110 114.081L88.5439 135.556L85.3002 112.325L110 87.6251V114.081ZM63.6502 120.019C60.8377 126.181 51.4314 140.556 25.0002 140.556C23.6741 140.556 22.4023 140.03 21.4647 139.092C20.527 138.154 20.0002 136.882 20.0002 135.556C20.0002 109.125 34.3752 99.7188 40.5377 96.9001C41.1352 96.6276 41.7805 96.4755 42.4368 96.4524C43.0932 96.4293 43.7476 96.5357 44.3628 96.7655C44.978 96.9953 45.5419 97.3441 46.0223 97.7918C46.5027 98.2396 46.8902 98.7776 47.1627 99.3751C47.4352 99.9726 47.5873 100.618 47.6104 101.274C47.6335 101.931 47.5271 102.585 47.2973 103.2C47.0674 103.815 46.7187 104.379 46.2709 104.86C45.8232 105.34 45.2852 105.728 44.6877 106C40.6689 107.831 31.8002 113.725 30.2377 130.319C46.8314 128.756 52.7377 119.888 54.5564 115.869C54.8289 115.271 55.2164 114.733 55.6969 114.286C56.1773 113.838 56.7412 113.489 57.3563 113.259C57.9715 113.029 58.626 112.923 59.2823 112.946C59.9386 112.969 60.5839 113.121 61.1814 113.394C61.7789 113.666 62.3169 114.054 62.7647 114.534C63.2125 115.015 63.5612 115.579 63.791 116.194C64.0208 116.809 64.1273 117.463 64.1042 118.12C64.0811 118.776 63.9289 119.421 63.6564 120.019H63.6502Z" fill="#1D9200"/>
</svg>
