<svg width="48" height="49" viewBox="0 0 48 49" fill="none" xmlns="http://www.w3.org/2000/svg">
<path d="M44.8932 25.4939L38.8932 10.4939C38.761 10.1635 38.5158 9.89082 38.2011 9.72458C37.8865 9.55834 37.5231 9.50936 37.1757 9.5864L25.5 12.1814V8.0564C25.5 7.65857 25.342 7.27704 25.0607 6.99574C24.7794 6.71443 24.3979 6.5564 24 6.5564C23.6022 6.5564 23.2207 6.71443 22.9394 6.99574C22.6581 7.27704 22.5 7.65857 22.5 8.0564V12.8526L10.1738 15.592C9.93612 15.6445 9.71481 15.7541 9.52894 15.9112C9.34307 16.0683 9.19822 16.2683 9.1069 16.4939V16.5051L3.1069 31.4939C3.03513 31.6727 2.99883 31.8637 3.00003 32.0564C3.00003 36.427 7.60128 38.0564 10.5 38.0564C13.3988 38.0564 18 36.427 18 32.0564C18.0012 31.8637 17.9649 31.6727 17.8932 31.4939L12.5475 18.1383L22.5 15.9314V39.5564H19.5C19.1022 39.5564 18.7207 39.7144 18.4394 39.9957C18.1581 40.277 18 40.6586 18 41.0564C18 41.4542 18.1581 41.8358 18.4394 42.1171C18.7207 42.3984 19.1022 42.5564 19.5 42.5564H28.5C28.8979 42.5564 29.2794 42.3984 29.5607 42.1171C29.842 41.8358 30 41.4542 30 41.0564C30 40.6586 29.842 40.277 29.5607 39.9957C29.2794 39.7144 28.8979 39.5564 28.5 39.5564H25.5V15.2601L35.0625 13.1376L30.1069 25.4939C30.0351 25.6727 29.9988 25.8637 30 26.0564C30 30.427 34.6013 32.0564 37.5 32.0564C40.3988 32.0564 45 30.427 45 26.0564C45.0012 25.8637 44.9649 25.6727 44.8932 25.4939ZM10.5 35.0564C9.08815 35.0564 6.23253 34.3795 6.01315 32.3114L10.5 21.0951L14.9869 32.3114C14.7675 34.3795 11.9119 35.0564 10.5 35.0564ZM37.5 29.0564C36.0882 29.0564 33.2325 28.3795 33.0132 26.3114L37.5 15.0951L41.9869 26.3114C41.7675 28.3795 38.9119 29.0564 37.5 29.0564Z" fill="#FDF9FF"/>
</svg>
